<?xml version="1.0" encoding="UTF-8" standalone="no"?>
<svg width="26px" height="16px" viewBox="0 0 26 16" version="1.1" xmlns="http://www.w3.org/2000/svg" xmlns:xlink="http://www.w3.org/1999/xlink">
    <!-- Generator: Sketch 3.6.1 (26313) - http://www.bohemiancoding.com/sketch -->
    <title>Combined Shape</title>
    <desc>Created with Sketch.</desc>
    <defs></defs>
    <g id="Page-1" stroke="none" stroke-width="1" fill="none" fill-rule="evenodd">
        <path d="M10.1960978,7.15348823 C10.1960978,7.15348823 12.5863564,6.97552811 12.5863564,4.17240205 C12.5863564,1.36876753 10.6308289,0 8.15311563,0 L3.59225207,0 L3.45852775,0 L0,0 L0,15.6681171 L3.45852775,15.6681171 L3.59225207,15.6681171 L8.15311563,15.6681171 C8.15311563,15.6681171 13.1298974,15.8252305 13.1298974,11.0431879 C13.1293889,11.0431879 13.3470087,7.15348823 10.1960978,7.15348823 L10.1960978,7.15348823 Z M3.59225207,2.7848216 L7.56584724,2.7848216 L8.15260717,2.7848216 C8.15260717,2.7848216 9.26104447,2.7848216 9.26104447,4.41442781 C9.26104447,6.04505093 8.60869353,6.28148366 7.86990481,6.28148366 L3.59174361,6.28148366 L3.59174361,2.7848216 L3.59225207,2.7848216 Z M7.92227593,12.8832955 C7.80177151,12.8863463 7.69957156,12.8832955 7.6309298,12.8832955 L3.59225207,12.8832955 L3.59225207,8.69665667 L8.15311563,8.69665667 C8.15311563,8.69665667 9.80509397,8.674793 9.80509397,10.8474318 C9.80458551,12.6809295 8.57106767,12.8695672 7.92227593,12.8832955 Z M19.7683182,3.98630661 C13.7430971,3.98630661 13.7481817,10.0064431 13.7481817,10.0064431 C13.7481817,10.0064431 13.3353142,15.9955637 19.7683182,15.9955637 C19.7683182,15.9955637 25.1300023,16.3016551 25.1300023,11.8287547 L22.3721289,11.8287547 C22.3721289,11.8287547 22.4636513,13.5137828 19.8598406,13.5137828 C19.8598406,13.5137828 17.1029841,13.6973359 17.1029841,10.7869254 L25.2215246,10.7869254 C25.2210162,10.7869254 26.1097998,3.98630661 19.7683182,3.98630661 Z M17.0719682,8.69665667 C17.0719682,8.69665667 17.4085671,6.28148366 19.8288246,6.28148366 C22.2500991,6.28148366 22.2180663,8.69665667 22.2180663,8.69665667 L17.0719682,8.69665667 Z M16.3977536,0.922850319 L22.8607566,0.922850319 L22.8607566,2.85244644 L16.3977536,2.85244644 L16.3977536,0.922850319 Z" id="Combined-Shape" fill="#000000"></path>
    </g>
</svg>