<?xml version="1.0" encoding="UTF-8" standalone="no"?>
<svg width="14px" height="17px" viewBox="0 0 14 17" version="1.1" xmlns="http://www.w3.org/2000/svg" xmlns:xlink="http://www.w3.org/1999/xlink">
    <!-- Generator: Sketch 3.6.1 (26313) - http://www.bohemiancoding.com/sketch -->
    <title>Shape</title>
    <desc>Created with Sketch.</desc>
    <defs></defs>
    <g id="Page-1" stroke="none" stroke-width="1" fill="none" fill-rule="evenodd">
        <path d="M12.6725966,3.21113737 C12.9849429,2.43919571 12.9537083,1.57355015 12.5699685,0.614200694 C12.3334777,0.538345156 11.9898967,0.582966061 11.5392256,0.7525255 C11.0885544,0.92208494 10.7003526,1.10949274 10.3656958,1.3147489 L9.88379001,1.61817106 C9.09399999,1.39952862 8.27743742,1.28797636 7.43856441,1.28797636 C6.59969139,1.28797636 5.78312883,1.39952862 4.99333881,1.61817106 C4.85947609,1.52446716 4.67653038,1.40845281 4.45342586,1.27459009 C4.23032133,1.14072737 3.87335409,0.975630026 3.39144831,0.783760134 C2.90954254,0.591890242 2.54365112,0.533883065 2.29377405,0.609738604 C1.91895845,1.56908806 1.8921859,2.43473362 2.20453224,3.20667528 C1.53521866,3.92953394 1.19609978,4.80410368 1.19609978,5.8303845 C1.19609978,6.55324316 1.28534159,7.19132211 1.45936312,7.74015924 C1.63338465,8.29345846 1.85648918,8.73966751 2.1286767,9.07878639 C2.40086422,9.41790527 2.74444519,9.70347906 3.15495752,9.93104568 C3.56546984,10.1586123 3.96705799,10.3281717 4.35079777,10.4263377 C4.73899965,10.5289658 5.17182243,10.6048213 5.65819029,10.6539043 C5.31907141,10.9617886 5.10935316,11.3990735 5.03349762,11.965759 C4.855014,12.0505387 4.66314411,12.1130079 4.46235004,12.1576288 C4.25709387,12.1977877 4.01614099,12.2200981 3.73502928,12.2200981 C3.45391758,12.2200981 3.17726797,12.1308563 2.90061836,11.9479106 C2.62396875,11.7649649 2.38747795,11.5017015 2.19560806,11.1536585 C2.0349728,10.881471 1.82971664,10.6628285 1.57983957,10.4932691 C1.3299625,10.3237096 1.12024424,10.2210816 0.950684805,10.1853848 L0.696345646,10.145226 C0.517862025,10.145226 0.392923491,10.1630744 0.325992133,10.2032332 C0.259060776,10.243392 0.236750323,10.292475 0.263522866,10.3504822 C0.290295409,10.4084894 0.325992133,10.4709586 0.37953722,10.5289658 C0.428620215,10.586973 0.486627392,10.6405181 0.544634568,10.6806769 L0.633876379,10.7431462 C0.82128418,10.8279259 1.00422989,10.9885611 1.1871756,11.2250519 C1.37012131,11.4615427 1.50398403,11.6801852 1.58876375,11.8765171 L1.71816437,12.1710151 C1.82971664,12.4922856 2.01712444,12.755549 2.28038778,12.956343 C2.54365112,13.1571371 2.82922491,13.2820757 3.13264706,13.3400828 C3.44053131,13.3936279 3.73502928,13.4248625 4.01614099,13.4293246 C4.30171478,13.4337867 4.53820557,13.4204005 4.72115129,13.3847037 L5.01564926,13.3356207 C5.01564926,13.6568913 5.01564926,14.0361689 5.02011135,14.4689917 C5.02457344,14.9018145 5.05580807,15.6202111 5.05580807,15.7585359 C5.05580807,15.9147091 5.04688389,16.0753443 5.0424218,16.2315175 C5.06027016,16.25829 5.08258062,16.2850626 5.09596689,16.3118351 C5.27445051,16.3609181 5.45739622,16.4010769 5.64480402,16.4278495 C6.61307766,16.5438638 7.54565458,16.6375677 8.51839031,16.5304775 C8.84858501,16.4813945 9.4643535,16.3966148 9.81239656,16.2493658 C9.88379001,16.1467378 9.88379001,15.2007746 9.88379001,15.1561537 L9.88379001,12.4699752 C9.88379001,11.6444884 9.66514757,11.0421062 9.22340061,10.6628285 C9.70530639,10.6137455 10.1425913,10.5334279 10.5307931,10.4352619 C10.918995,10.3326338 11.3161211,10.1675365 11.7266334,9.93996986 C12.1371457,9.71240324 12.4807267,9.42682945 12.7573763,9.09217266 C13.0340259,8.75751588 13.2571304,8.31130682 13.431152,7.75354551 C13.6051735,7.1957842 13.6944153,6.55770525 13.6944153,5.83484659 C13.681029,4.80856577 13.3463722,3.93399603 12.6725966,3.21113737 L12.6725966,3.21113737 Z" id="Shape" fill="#020001"></path>
    </g>
</svg>