<svg xmlns="http://www.w3.org/2000/svg" viewBox="0 0 778 784" enable-background="new 0 0 778 784"><path d="M488.5 340.3l250-117c1-1 3-3 3-4v-178c0-3-2-5-5-5h-225c-3 0-5 2-5 5v94c0 1 1 2 2 3l69 35-144 67 55 100zM559.5 579.3c91 0 165-33 198-54v-140c0-3-2-5-5-5h-138c-2 0-5 2-5 4l-13 80c-9 4-17 5-23 5-18 0-27-12-30-22l-105-317c-21-63-97-111-216-111-86 0-160 33-193 54v140c0 3 2 5 5 5h138c2 0 5-1 5-4l13-80c9-4 16-6 23-6 15 0 26 9 31 25l103 306c21 62 90 120 212 120zM128.5 767.3c122 0 204-62 204-170 0-64-50-132-126-144v-4l146-68-51-102-237 111c-1 1-3 3-3 4v112c0 3 2 5 5 5h15c48 0 78 33 78 66 0 30-21 60-80 60-13 0-34-2-49-5l-7 5v113c23 9 62 17 105 17z"/></svg>