<svg xmlns="http://www.w3.org/2000/svg" viewBox="0 0 271 106" enable-background="new 0 0 271 106"><path d="M143 14.2c0 5.5 4.5 9.3 10 9.3s10-3.8 10-9.3c0-5.5-4.5-9.2-10-9.2s-10 3.6-10 9.2zm82.9 51c0-4.2 2.5-5.9 6.3-6.5l6.1-.9v11.6c-1.1 1.1-3.9 2-6.1 2-3.8-.1-6.3-1.8-6.3-6.2zm-18 2.2c0 8.8 6.5 14.5 15.6 14.5 6.7 0 13.7-2.8 16.3-6.2h.5l.7 4.6c0 .3.3.4.5.4h19.7c.3 0 .5-.2.5-.5v-8.2c0-.2-.2-.4-.4-.5l-4.9-1.3v-26.8c0-12.6-9.9-16.7-23.1-16.7-6.1 0-13 1.3-18.2 3.6-.2.1-.3.2-.3.4v11.8c0 .1.1.2.2.3l.3.3c.1.1.3.1.4 0 3.2-1.3 8.4-2.2 12.3-2.2 6.5 0 10.3 1.3 10.3 5.7v3l-11.1 1.4c-11.4 1.5-19.3 5.7-19.3 16.4zm-37.8-29.1l5.5 1.5v30.4l-5.2 1.3c-.2.1-.4.3-.4.5v8.1c0 .3.2.5.5.5h30.2c.3 0 .5-.2.5-.5v-8.1c0-.2-.1-.4-.4-.5l-6.9-1.3v-24.3c2.1-1.5 6.3-3.2 11.2-3.2 1.4 0 2.7.1 3.8.4.1 0 .3 0 .4-.1l.3-.3c.1-.1.2-.2.2-.3v-14.9c0-.2-.1-.4-.4-.5-.6-.1-1.4-.2-2.3-.2-6 0-10.6 3.8-13.4 8.5h-.6v-6.6c0-.1-.2-.3-.3-.4l-1.2-.6h-21.4c-.3 0-.5.2-.5.5v9.6c0 .2.2.4.4.5zm-36.6 60.8c2.2.9 5 1.6 9.1 1.6 14.6 0 20.2-7.8 20.2-20.2v-51.8c0-.1-.2-.3-.3-.4l-1.3-.6h-22.2c-.3 0-.5.2-.5.5v9.6c0 .2.2.4.4.5l5.8 1.5v41c0 5-2.7 7-6.9 7-1.3 0-2.4-.2-3.9-.5l-.7.5v10.9c0 .2.1.3.3.4zm-22.5-84.9c0 5.5 4.5 9.3 10 9.3s10-3.8 10-9.3c0-5.5-4.5-9.2-10-9.2s-10 3.6-10 9.2zm-4.1 24.1l5.7 1.5v30.4l-5.2 1.3c-.2.1-.4.3-.4.5v8.1c0 .3.2.5.5.5h28.2c.3 0 .5-.2.5-.5v-8.1c0-.2-.2-.4-.4-.5l-5-1.3v-41.5c0-.1-.2-.3-.3-.4l-1.3-.6h-22.2c-.3 0-.5.2-.5.5v9.6c0 .2.2.4.4.5zm-93.3 0l5.5 1.5v30.4l-5.2 1.3c-.2.1-.4.3-.4.5v8.1c0 .3.2.5.5.5h26.9c.3 0 .5-.2.5-.5v-8.1c0-.2-.1-.4-.3-.5l-3.8-1v-28.8c2.1-.8 3.6-1.4 6.3-1.4 4 0 5.7 1.4 5.7 6v24.2l-3.8 1c-.2.1-.3.3-.3.5v8.1c0 .3.2.5.5.5h25.2c.3 0 .5-.2.5-.5v-8.1c0-.2-.1-.4-.3-.5l-3.8-1v-26.4c0-1.1-.1-1.9-.2-2.4 2.1-.8 4-1.4 6.2-1.4 4.3 0 6 1.4 6 6v24.2l-3.7 1c-.2.1-.3.3-.3.5v8.1c0 .3.2.5.5.5h26.3c.3 0 .5-.2.5-.5v-8.1c0-.2-.2-.4-.4-.5l-4.9-1.3v-30.3c0-8.3-4.6-13.3-13.7-13.3-7.4 0-13.7 2.9-18 6.7h-.5c-2.1-4.7-6-6.7-11.6-6.7-7.5 0-12.2 2.6-16.8 6.2h-.6v-4c0-.1-.1-.3-.1-.3l-.7-.8c-.1-.1-.2-.1-.3-.1h-21.3c-.3 0-.5.2-.5.5v9.6c0 .3.2.5.4.6z"/></svg>