<svg xmlns="http://www.w3.org/2000/svg" width="56.693" height="56.693" viewBox="0 0 56.693 56.693"><path d="M23.556 29.975s4.701-.35 4.701-5.863c0-5.514-3.846-8.206-8.719-8.206h-16.035v30.815h16.035s9.788.309 9.788-9.096c-.001 0 .427-7.65-5.77-7.65zm-12.988-8.592h8.969000000000001s2.18 0 2.18 3.205c0 3.207-1.283 3.672-2.736 3.672h-8.414v-6.877zm8.516 19.861h-8.516v-8.234h8.97s3.249-.043 3.249 4.23c-.001 3.606-2.427 3.977-3.703 4.004zM42.382 23.746c-11.85 0-11.84 11.84-11.84 11.84s-.812 11.779 11.84 11.779c0 0 10.545.602 10.545-8.195h-5.424s.18 3.314-4.941 3.314c0 0-5.422.361-5.422-5.363h15.967c-.001 0 1.747-13.375-10.725-13.375zm-5.303 9.264s.662-4.75 5.422-4.75c4.762 0 4.699 4.75 4.699 4.75h-10.121zM35.753 17.721h12.711v3.795h-12.711z"/></svg>