<svg xmlns="http://www.w3.org/2000/svg" width="56.693" height="56.693" viewBox="0 0 56.693 56.693"><path d="M43.414 4.831h-30.414c-5.283 0-9.581 4.297-9.581 9.58v30.415c0 5.283 4.298 9.58 9.581 9.58h30.415c5.283 0 9.58-4.297 9.58-9.58v-30.415999999999997c-.001-5.283-4.298-9.579-9.581-9.579zm2.748 5.713l1.096-.004v8.403l-8.375.027-.029-8.402 7.308-.024zm-25.031 13.986c1.588-2.197 4.164-3.638 7.076-3.638s5.488 1.441 7.074 3.638c1.033 1.434 1.652 3.188 1.652 5.088 0 4.811-3.918 8.725-8.727 8.725-4.812 0-8.726-3.914-8.726-8.725.001-1.9.618-3.654 1.651-5.088zm27.033 20.295c0 2.621-2.131 4.75-4.75 4.75h-30.414c-2.62 0-4.751-2.129-4.751-4.75v-20.295h7.4c-.639 1.572-.998 3.289-.998 5.088 0 7.473 6.08 13.557 13.556 13.557 7.475 0 13.555-6.084 13.555-13.557 0-1.799-.361-3.516-1-5.088h7.402v20.295z"/></svg>