<svg xmlns="http://www.w3.org/2000/svg" width="56.693" height="56.693" viewBox="0 0 56.693 56.693"><path d="M54.082 15.55c-1.812.805-3.76 1.348-5.805 1.591 2.087-1.25 3.689-3.231 4.444-5.592-1.953 1.159-4.115 2-6.418 2.454-1.843-1.964-4.47-3.192-7.377-3.192-5.582 0-10.107 4.525-10.107 10.107 0 .792.089 1.563.262 2.303-8.4-.421-15.848-4.444-20.832-10.56-.87 1.492-1.368 3.228-1.368 5.081 0 3.506 1.784 6.6 4.496 8.413-1.656-.053-3.215-.507-4.578-1.265l-.001.128c0 4.896 3.484 8.981 8.108 9.91-.848.231-1.741.354-2.663.354-.652 0-1.285-.063-1.902-.182 1.287 4.015 5.019 6.938 9.441 7.019-3.459 2.711-7.816 4.327-12.552 4.327-.815 0-1.62-.048-2.411-.141 4.474 2.868 9.786 4.541 15.493 4.541 18.591 0 28.756-15.401 28.756-28.757 0-.438-.009-.875-.028-1.308 1.974-1.425 3.688-3.205 5.042-5.232z"/></svg>