<svg width="26" height="16" viewBox="0 0 26 16" xmlns="http://www.w3.org/2000/svg"><path d="M10.196 7.153s2.39-.178 2.39-2.981c0-2.804-1.956-4.172-4.433-4.172h-8.154v15.668h8.154s4.977.157 4.977-4.625c-.001 0 .217-3.89-2.934-3.89zm-6.604-4.369h4.561s1.108 0 1.108 1.63c0 1.631-.652 1.867-1.391 1.867h-4.278v-3.497h.001zm4.33 10.098h-4.33v-4.187h4.561s1.652-.022 1.652 2.151c-.001 1.833-1.234 2.022-1.883 2.036zm11.846-8.897c-6.025 0-6.02 6.02-6.02 6.02s-.413 5.989 6.02 5.989c0 0 5.362.306 5.362-4.167h-2.758s.092 1.685-2.512 1.685c0 0-2.757.184-2.757-2.727h8.119c-.001 0 .888-6.801-5.453-6.801zm-2.696 4.71s.337-2.415 2.757-2.415c2.421 0 2.389 2.415 2.389 2.415h-5.146zm-.674-7.774h6.463v1.93h-6.463v-1.93z" fill="currentColor"/></svg>