<svg xmlns="http://www.w3.org/2000/svg" width="56.693" height="56.693" viewBox="0 0 56.693 56.693"><path fill-rule="evenodd" clip-rule="evenodd" d="M52.43 24.152c-.324-1.588-.811-3.152-1.441-4.646-.619-1.467-1.387-2.879-2.279-4.199-.885-1.309-1.9-2.539-3.018-3.656-1.117-1.119-2.348-2.135-3.656-3.018-1.32-.895-2.734-1.66-4.199-2.281-1.494-.629-3.057-1.117-4.646-1.439-1.627-.334-3.303-.504-4.977-.504-1.676 0-3.35.17-4.979.504-1.588.322-3.152.811-4.645 1.439-1.465.621-2.879 1.387-4.201 2.281-1.309.883-2.539 1.898-3.656 3.018-1.118 1.117-2.132 2.348-3.016 3.656-.893 1.32-1.66 2.732-2.279 4.199-.633 1.494-1.118 3.058-1.443 4.646-.333 1.625-.502 3.301-.502 4.976 0 1.678.169 3.354.502 4.98.325 1.588.811 3.152 1.442 4.645.619 1.465 1.387 2.881 2.279 4.201.884 1.309 1.898 2.537 3.016 3.656 1.117 1.117 2.348 2.131 3.656 3.016 1.322.893 2.736 1.66 4.201 2.279 1.492.633 3.057 1.115 4.645 1.441 1.629.336 3.303.504 4.979.504 1.674 0 3.35-.168 4.977-.504 1.59-.326 3.152-.809 4.646-1.441 1.465-.619 2.879-1.387 4.199-2.279 1.309-.885 2.539-1.898 3.656-3.016 1.117-1.119 2.133-2.348 3.018-3.656.893-1.32 1.66-2.736 2.279-4.201.631-1.492 1.117-3.057 1.441-4.645.334-1.627.502-3.303.502-4.98.001-1.675-.167-3.351-.501-4.976zm-3.114 4.767c-.305-.066-7.449-1.604-14.703-.692l-.455-1.09c-.439-1.033-.912-2.057-1.404-3.062 8.338-3.402 11.723-8.297 11.762-8.355 2.961 3.594 4.752 8.188 4.8 13.199zm-7.16-15.634c-.053.082-3.059 4.658-11.027 7.645-3.609-6.631-7.574-11.898-7.891-12.316 1.596-.387 3.26-.596 4.975-.596 5.346 0 10.223 1.992 13.943 5.267zm-19-4.654l-.004.004-.062.014.066-.018zm-3.951 1.404c.281.377 4.186 5.67 7.84 12.164-10.137 2.693-18.934 2.588-19.492 2.578 1.372-6.539 5.765-11.961 11.652-14.742zm-12.103 19.093l.018-.667c.372.008 10.804.245 21.673-3.008.605 1.184 1.184 2.387 1.713 3.589-.279.078-.557.162-.832.252-11.393 3.682-17.172 13.934-17.172 13.934l.008.01c-3.361-3.741-5.408-8.686-5.408-14.11zm21.111 21.113c-5.109 0-9.795-1.816-13.447-4.838l.473.369s4.047-8.826 16.566-13.188l.141-.045c2.971 7.719 4.197 14.184 4.51 16.029-2.534 1.078-5.319 1.673-8.243 1.673zm11.797-3.601c-.215-1.275-1.34-7.471-4.109-15.08 6.814-1.09 12.721.779 13.156.922-.94 5.882-4.307 10.956-9.047 14.158z"/></svg>