<svg width="14" height="17" viewBox="0 0 14 17" xmlns="http://www.w3.org/2000/svg"><path d="M12.673 3.211c.312-.772.281-1.638-.103-2.597-.236-.076-.58-.031-1.031.138-.451.17-.839.357-1.174.562l-.482.303c-.79-.219-1.606-.33-2.445-.33-.839 0-1.655.112-2.445.33-.134-.094-.317-.21-.54-.344-.223-.134-.58-.299-1.062-.491-.482-.192-.848-.25-1.098-.174-.375.959-.402 1.825-.089 2.597-.669.723-1.008 1.597-1.008 2.624 0 .723.089 1.361.263 1.91.174.553.397 1 .669 1.339.272.339.616.625 1.026.852.411.228.812.397 1.196.495.388.103.821.178 1.307.228-.339.308-.549.745-.625 1.312-.178.085-.37.147-.571.192-.205.04-.446.062-.727.062-.281 0-.558-.089-.834-.272-.277-.183-.513-.446-.705-.794-.161-.272-.366-.491-.616-.66-.25-.17-.46-.272-.629-.308l-.254-.04c-.178 0-.303.018-.37.058-.067.04-.089.089-.062.147l.116.178.165.152.089.062c.187.085.37.245.553.482.183.236.317.455.402.651l.129.294c.112.321.299.585.562.785.263.201.549.326.852.384.308.054.602.085.883.089.286.004.522-.009.705-.045l.294-.049.004 1.133c.004.433.036 1.151.036 1.29l-.013.473.054.08c.178.049.361.089.549.116.968.116 1.901.21 2.874.103.33-.049.946-.134 1.294-.281.071-.103.071-1.049.071-1.093v-2.686c0-.825-.219-1.428-.66-1.807.482-.049.919-.129 1.307-.228.388-.103.785-.268 1.196-.495.411-.228.754-.513 1.031-.848.277-.335.5-.781.674-1.339.174-.558.263-1.196.263-1.919-.013-1.026-.348-1.901-1.022-2.624l.001.003z" fill="currentColor"/></svg>