<svg xmlns="http://www.w3.org/2000/svg" width="56.693" height="56.693" viewBox="0 0 56.693 56.693"><path d="M43.911 28.21h-31.129c-4.948 0-8.959 4.015-8.959 8.962v7.201c0 4.947 4.011 8.961 8.959 8.961h31.129c4.947 0 8.959-4.014 8.959-8.961v-7.201c0-4.947-4.012-8.962-8.959-8.962zm-24.589 5.606h-2.894v14.38h-2.796v-14.38h-2.892v-2.446h8.582v2.446zm8.175 14.38h-2.48v-1.36c-.461.503-.936.887-1.432 1.146-.496.27-.975.396-1.441.396-.576 0-1.004-.183-1.297-.555-.288-.371-.435-.921-.435-1.664v-10.377h2.48v9.523c0 .294.055.505.154.636.107.135.277.197.51.197.18 0 .412-.086.691-.26.281-.176.537-.396.77-.668v-9.429h2.48v12.415zm9.004-2.563c0 .877-.195 1.551-.584 2.021-.387.47-.953.701-1.686.701-.488 0-.922-.088-1.299-.27-.379-.18-.736-.457-1.061-.841v.951h-2.51v-16.825h2.51v5.419c.336-.375.691-.666 1.062-.861.379-.199.76-.295 1.146-.295.785 0 1.383.262 1.797.791.416.529.623 1.304.623 2.32v6.889zm8.603-3.345h-4.746v2.339c0 .652.08 1.106.242 1.359.166.254.445.378.842.378.412 0 .697-.107.863-.321.16-.216.246-.686.246-1.416v-.565h2.553v.637c0 1.272-.309 2.231-.936 2.878-.617.641-1.547.959-2.783.959-1.113 0-1.99-.339-2.627-1.021-.635-.678-.959-1.619-.959-2.815v-5.576c0-1.073.354-1.956 1.057-2.633.701-.677 1.604-1.015 2.715-1.015 1.137 0 2.01.313 2.619.941.609.629.914 1.529.914 2.706v3.165zM41.466 37.646c-.396 0-.678.111-.85.343-.176.218-.258.591-.258 1.112v1.255h2.193v-1.255c0-.521-.088-.895-.262-1.112-.167-.231-.446-.343-.823-.343zM32.909 37.604c-.176 0-.354.039-.525.12-.174.079-.344.21-.512.38v7.733c.199.2.396.354.588.442.191.085.389.133.6.133.305 0 .527-.088.67-.266.141-.176.213-.457.213-.854v-6.411c0-.422-.084-.738-.26-.955-.182-.214-.44-.322-.774-.322zM16.858 23.898h3.144v-7.69l3.661-10.848h-3.196l-1.946 7.41h-.198l-2.043-7.41h-3.167l3.745 11.194zM27.923 24.243c1.27 0 2.266-.333 2.992-.999.721-.669 1.082-1.582 1.082-2.752v-7.064c0-1.041-.369-1.898-1.104-2.559-.74-.659-1.688-.991-2.844-.991-1.27 0-2.281.314-3.033.941-.75.627-1.127 1.468-1.127 2.531v7.088c0 1.163.367 2.083 1.1 2.773.733.687 1.713 1.032 2.934 1.032zm-1.158-10.997c0-.297.107-.537.316-.725.217-.184.492-.273.834-.273.369 0 .668.089.896.273.227.188.34.428.34.725v7.451c0 .365-.111.655-.336.864-.223.21-.523.313-.9.313-.369 0-.654-.1-.854-.31-.197-.205-.297-.493-.297-.868v-7.45zM36.214 24.098c.525 0 1.064-.15 1.619-.438.561-.292 1.098-.719 1.609-1.276v1.515h2.793v-13.675h-2.793v10.38c-.26.297-.549.541-.859.735-.316.192-.576.288-.781.288-.262 0-.455-.072-.568-.221-.115-.143-.18-.377-.18-.698v-10.484h-2.789v11.429c0 .815.164 1.424.488 1.828.33.41.812.617 1.461.617z"/></svg>